<?xml version="1.0" encoding="utf-8"?>
<!-- Generator: Adobe Illustrator 19.2.0, SVG Export Plug-In . SVG Version: 6.00 Build 0)  -->
<svg version="1.1" xmlns="http://www.w3.org/2000/svg" xmlns:xlink="http://www.w3.org/1999/xlink" x="0px" y="0px"
	 viewBox="0 0 242.6 153" style="enable-background:new 0 0 242.6 153;" xml:space="preserve">
<style type="text/css">
	.st0{display:none;}
	.st1{display:inline;fill:none;stroke:#000000;stroke-miterlimit:10;}
	.st2{display:inline;fill:none;stroke:#000000;stroke-width:3;stroke-miterlimit:10;}
	.st3{font-family:'SignPainter-HouseScript';}
	.st4{font-size:35.0498px;}
	.st5{fill:none;stroke:#000000;stroke-width:2;stroke-miterlimit:10;}
</style>
<g id="Layer_2">
	<g class="st0">
		<path class="st1" d="M166.1,82.7c-5.8,9.3-16.1,15.6-27.9,15.6c-11.8,0-22.1-6.2-27.9-15.6h6.4c5,6.3,12.8,10.3,21.5,10.3
			c8.7,0,16.4-4,21.5-10.3H166.1z"/>
		<path class="st1" d="M109.6,49.7c5.6-10.1,16.3-16.9,28.7-16.9c12.3,0,23.1,6.8,28.7,16.9h-6.2c-5-7.1-13.2-11.7-22.5-11.7
			c-9.3,0-17.5,4.6-22.5,11.7"/>
		<path class="st1" d="M115.8,49.7h-6.2"/>
		<path class="st2" d="M140.8,43.6c5.7,0,11.5,3.7,13.9,8.1"/>
	</g>
</g>
<g id="svg8" inkscape:version="0.92.4 (5da689c313, 2019-01-14)" sodipodi:docname="new logo.svg" xmlns:cc="http://creativecommons.org/ns#" xmlns:dc="http://purl.org/dc/elements/1.1/" xmlns:inkscape="http://www.inkscape.org/namespaces/inkscape" xmlns:osb="http://www.openswatchbook.org/uri/2009/osb" xmlns:rdf="http://www.w3.org/1999/02/22-rdf-syntax-ns#" xmlns:sodipodi="http://sodipodi.sourceforge.net/DTD/sodipodi-0.dtd" xmlns:svg="http://www.w3.org/2000/svg">
	<g id="path1295-7" inkscape:connector-curvature="0" sodipodi:nodetypes="csccsszccczccc">
		<g>
			<path d="M23.2,82.2c6.5-1.7,11.7,1.3,16.3,5.4c4.8,4.3,9.5,8.7,16.2,9.7c4.4,0.7,9.3-1.9,12.1-5.1c4.2-4.9,6.3-11.7,8.2-17.8
				c3.8-12.4,5.7-25.8,12.7-37c1-1.5,2-3,3.3-4.3c0.4-0.4,0.8-0.8,1.3-1.2c0.5-0.4,2-1.2,0.1-0.3c-2,0.9-0.5,0.1,0,0.6
				c0.3,0.3,0.1,0.8,0,1.1c-0.5,1.6-2.7,2.9-4.1,3.6c-4.3,2.1-9.8,2.5-14.5,2.9c-4.1,0.3-8.3,0.6-12.4,0.6c-2.6,0.1-5.3,0.2-7.8-0.3
				c-0.6-0.1-2-0.3-2.1-1.1c0-0.4,0.4-0.5,0.5-0.8c0.1-0.1,0.4-0.2,0.5-0.3c-0.2,0.2-0.8,0.3-0.2,0.1c3.2-1.1,6.7-2.1,10.1-2.4
				c5.4-0.5,8.8,2.6,8.7,8.1c-0.1,5.8-2.8,11.5-5.2,16.6C64,66.3,61,72.1,58.2,77.9c-1.1,2.4-2.3,4.8-3.2,7.2
				c-0.5,1.3-1.3,3.1-1,4.5c0.3,1.6,1.6,0.7,2.7,0.2c1.6-0.7,2.3-1.1,2.5-2.8c0.7-5.3-0.6-11.2-1.3-16.4c-0.8-6.2-1.6-12-0.3-18.3
				c0.5-2.6,1.6-6.5,3.7-8.3c-1.1,0.5-2.2,1-3.3,1.5c0.1,0-0.6,3-0.6,3.2c-0.4,1.2-0.9,2.3-1.4,3.5c-0.7,1.7-1.3,3.4-2,5.1
				c-2.4,6.2-5.4,12.2-8.6,18c-3.5,6.3-8.4,11.8-13.9,16.5c-3.5,3.1-7.4,5.3-11.5,7.5c-0.7,0.4-0.5,0.3,0.1,0.2
				c0.9-0.1,1.8-0.8,2.6-1.2c7-3.7,12.9-7.9,18.3-13.8c7.1-7.6,11.8-17,15.7-26.6c1.1-2.8,2.1-5.6,3.3-8.4c0.2-0.6,2.4-5,1.6-5.7
				c-0.5-0.5-2.9,0.9-3.4,1.3c-2.8,1.9-3.9,6.8-4.5,9.9c-0.7,4.2-0.5,7.9-0.1,12.1c0.5,4.8,1.2,9.7,1.7,14.5
				c0.2,1.7,1.3,7.4-0.5,8.7c0.7-0.4,1.5-0.7,2.2-1.1c1.5-0.7,0.6-0.1,0.6-1.2c0-0.6,0-1.2,0.1-1.8c0.4-1.8,1.1-3.6,1.8-5.3
				c2.2-5.2,4.8-10.1,7.3-15.2c2.5-5,5-10,6.9-15.3c1.5-4.3,3.6-11.2-0.3-14.8c-2.6-2.5-6.7-1.8-10-1.2c-3,0.6-6,1.4-8.9,2.6
				c-1.1,0.4-5.9,1.9-5.9,3.5c-0.1,1.8,6.1,1.5,7,1.5c6.7,0.1,13.6-0.2,20.2-1.2c4-0.6,8-1.5,11.8-3.1c2.6-1.1,5.4-2.3,7.6-4.2
				c0.6-0.5,2.1-1.9,1.7-2.9c-1.1-2.5-7.9,2.9-8.9,4.1c-6.6,7.2-9.6,17.7-12,26.9c-1.7,6.6-3.3,13.2-5.6,19.6
				c-1.1,3-2.3,5.9-3.8,8.7c-0.7,1.2-1.5,2.4-2.4,3.5c-0.4,0.4-0.7,0.9-1.2,1.2c-0.2,0.2-0.5,0.4-0.7,0.6c-0.3,0.2-1.5,0.8-0.6,0.5
				c0.8-0.2-0.6,0-0.9,0c-0.9,0-1.8-0.2-2.7-0.3c-1.7-0.3-3.3-0.9-4.8-1.6c-2.6-1.3-4.9-3.1-7.1-5c-3.8-3.3-7.5-7.6-12.6-8.6
				c-2.5-0.5-5.1-0.4-7.5,0.3c-0.9,0.2-1.7,0.6-2.5,1.1C23.6,81.8,22.5,82.4,23.2,82.2L23.2,82.2z"/>
		</g>
	</g>
</g>
<g id="Layer_3">
	<text transform="matrix(0.8097 0 0 1 83.9904 78.8647)" class="st3 st4">photography</text>
	<ellipse cx="106.7" cy="48" rx="3.4" ry="2"/>
</g>
<g id="Layer_4">
	<path class="st5" d="M120.2,46.3l-2.5,2.9c-1.3,1.5-3.3,2.4-5.3,2.4H99.6l-0.3-0.2c-1.6-1.4-2-3.7-1.1-5.6l0.6-1.3
		c0.6-1.3,1.9-2.2,3.4-2.2h25.1c0,0,4.3-7.9,7.8-7.9h10.6c3.2,0,7.2,7.9,7.2,7.9h16.9c1.5,0,3,0.5,3.9,1.7l5.8,6.4"/>
	<path class="st5" d="M124.7,54c10.1-11.3,27.5-8,32.4,4.6"/>
</g>
</svg>
